<svg xmlns="http://www.w3.org/2000/svg" width="32" height="32" viewBox="0 0 32 32">
  <rect width="32" height="32" rx="6" fill="#f59e0b"/>
  <g transform="translate(16,16) scale(1.4)">
    <path d="M0.00,-5.00 L2.66,-8.60 A9,9 0 0,1 8.38,-3.28 L3.91,-3.12 Z" fill="#0d0d0d" stroke="#f59e0b" stroke-width="0.4" stroke-linejoin="round"/>
    <path d="M3.91,-3.12 L8.38,-3.28 A9,9 0 0,1 7.79,4.51 L4.87,1.11 Z" fill="#0d0d0d" stroke="#f59e0b" stroke-width="0.4" stroke-linejoin="round"/>
    <path d="M4.87,1.11 L7.79,4.51 A9,9 0 0,1 1.33,8.90 L2.17,4.50 Z" fill="#0d0d0d" stroke="#f59e0b" stroke-width="0.4" stroke-linejoin="round"/>
    <path d="M2.17,4.50 L1.33,8.90 A9,9 0 0,1 -6.13,6.59 L-2.17,4.50 Z" fill="#0d0d0d" stroke="#f59e0b" stroke-width="0.4" stroke-linejoin="round"/>
    <path d="M-2.17,4.50 L-6.13,6.59 A9,9 0 0,1 -8.97,-0.68 L-4.87,1.11 Z" fill="#0d0d0d" stroke="#f59e0b" stroke-width="0.4" stroke-linejoin="round"/>
    <path d="M-4.87,1.11 L-8.97,-0.68 A9,9 0 0,1 -5.06,-7.44 L-3.91,-3.12 Z" fill="#0d0d0d" stroke="#f59e0b" stroke-width="0.4" stroke-linejoin="round"/>
    <path d="M-3.91,-3.12 L-5.06,-7.44 A9,9 0 0,1 2.66,-8.60 L-0.00,-5.00 Z" fill="#0d0d0d" stroke="#f59e0b" stroke-width="0.4" stroke-linejoin="round"/>
  </g>
</svg>
